<svg width="16" height="63" viewBox="0 0 16 63" fill="none" xmlns="http://www.w3.org/2000/svg">
<path d="M11.5541 0.242458V5.62874H0.78656V9.50734H11.5541V14.8936H15.4344V9.50734V5.62874V0.242458H11.5541Z" fill="white"/>
<path d="M15.4347 52.8207H8.90973L2.74372 46.6547L0.000488281 49.3979L5.1981 54.5938L0.000488281 59.7931L2.74372 62.5347L8.58248 56.6993H15.4347V52.8207Z" fill="white"/>
<path d="M11.5541 35.6923H5.38978C4.70856 35.6923 4.15591 35.1179 4.15591 34.4083C4.15591 33.7037 4.70856 33.1293 5.38978 33.1293H11.5541V35.6923ZM11.5541 23.761V29.3309L2.59145 23.2183L0.405878 26.4257L5.20612 29.6982H4.83545C2.33098 29.6982 0.30069 31.8087 0.30069 34.4066C0.30069 37.0113 2.33098 39.1217 4.83545 39.1217H11.5541H15.411H15.4344V23.7593H11.5541V23.761Z" fill="white"/>
</svg>
